<?xml version="1.0" encoding="utf-8"?>
<!-- Generator: Adobe Illustrator 26.0.0, SVG Export Plug-In . SVG Version: 6.00 Build 0)  -->
<svg version="1.1" id="Capa_1" xmlns="http://www.w3.org/2000/svg" xmlns:xlink="http://www.w3.org/1999/xlink" x="0px" y="0px"
	 viewBox="0 0 494.6 494.6" style="enable-background:new 0 0 494.6 494.6;" xml:space="preserve">
<style type="text/css">
	.st0{fill:#FFFFFF;}
</style>
<g>
	<g>
		<path class="st0" d="M314.4,52.7c-21.6,0-39.1,0-39.1,0l-12.1-37.2c-6.7-20.6-17.5-20.6-24.2,0c-6.7,20.6-12.1,37.2-12.1,37.2
			h-39.2c-21.6,0-25,10.3-7.5,23c17.5,12.7,31.7,23,31.7,23L199.8,136c-6.7,20.6,2.1,27,19.6,14.2c17.5-12.7,31.7-23,31.7-23
			l31.7,23c17.5,12.7,26.3,6.3,19.6-14.2c-6.7-20.6-12.1-37.2-12.1-37.2l31.7-23C339.4,63,336.1,52.7,314.4,52.7z"/>
		<path class="st0" d="M168.9,185.6c0,0-14.7,9.9-20,57.9c27.6,35.7,61.8,29.9,76.9,24.9c1.4-0.5,3.1-2.7,3.2-4.1
			c2-34.3-26.3-80-36.5-95.3C184.2,172.2,176.2,177.5,168.9,185.6z"/>
		<path class="st0" d="M313.3,96.5l4.9,15.1c3.2,10,3.7,18.5,1.9,25.6c57.1,27.3,96.7,85.4,96.7,152.8c0,93.4-76,169.5-169.5,169.5
			c-1,0-2-0.1-3-0.2l-0.3-6.3c-0.1-2.8,1.9-5.9,4.6-6.9l32.8-12.3c0,0,15.4,0.9,21.8-10.7c3.2-5.8,6.2-9.9,8.5-12.5
			c1.8-2.2,1.8-5.2-0.2-7.2c-6.7-6.5-20.2-20.7-21.4-31.5c-1.7-14.5-22.2-26.5-48.7-28.2c0,0-14.1-10.8-15-29.5
			c-0.2-2.8-2.3-5.6-5-5c-7.1,1.7-19.1,10.8-19.7,52.3c0,0-37.6,19.1-41.1,73.7c-3-1.8-6-3.6-8.9-5.5c1.4-16.6,5.6-29.8,10.5-39.8
			c9.8-19.8,23.5-30.9,30.4-35.5c1.5-41,14.8-52.9,25.9-55.7c3.4-0.8,7-0.1,9.8,2c3.2,2.4,5.3,6.4,5.5,10.6
			c0.6,11,7.1,18.7,10.2,21.8c5,0.5,9.8,1.3,14.3,2.4l0.4-3.9l3.4-33.4c0.6-5.6,5.7-10.4,11.3-11.2c21.3-3.1,68.7-15.7,71.8-66.9
			c0.3-5.7-4.4-11.3-9.9-12.7l-45.1-11c0,0-1.3-10.9-14.1-15.4c-9.3-3.3-41.5-21.7-73.1-15.2c12,18.2,38.6,63.1,36.5,99
			c-0.3,5.6-4.8,11.5-10.2,13.3c-5.2,1.7-14.5,4.1-25.8,4.1c-16.4,0-37-5-55.5-24.4c-0.4,6.2-0.6,12.8-0.6,20
			c-0.2,37.2-47.4,72.4-47.4,72.4l-5.6,11.7c-10.3-21.9-16.2-46.2-16.2-71.9c0-69.1,41.6-128.5,101-154.9
			c-1.2-6.7-0.6-14.5,2.3-23.5l5.5-16.9C103.4,120.6,42.8,198.4,42.8,290.1c0,112.8,91.8,204.5,204.5,204.5s204.5-91.8,204.5-204.5
			C451.8,200.4,393.8,124,313.3,96.5z M270.5,374.4c3.2,0,5.8,2.6,5.8,5.8c0,3.2-2.6,5.8-5.8,5.8c-3.2,0-5.8-2.6-5.8-5.8
			C264.7,377,267.3,374.4,270.5,374.4z M264.7,207.9c3.2,0,5.8,2.6,5.8,5.8s-2.6,5.8-5.8,5.8c-3.2,0-5.8-2.6-5.8-5.8
			C259,210.5,261.5,207.9,264.7,207.9z"/>
	</g>
</g>
</svg>
